<svg xmlns="http://www.w3.org/2000/svg" viewBox="0 0 1200 675" role="img"><title>Host and device memory residency</title><desc>Persistent weights and workspaces surround the narrow host-device boundary used by compact detection.</desc><defs><marker id="a" markerWidth="10" markerHeight="10" refX="8" refY="3" orient="auto"><path d="M0 0L9 3 0 6Z" fill="#f59e0b"/></marker><style>.t{fill:#e8edf2;font:21px system-ui}.m{fill:#a7b2c1;font:16px ui-monospace,monospace}.a{stroke:#f59e0b;stroke-width:4;fill:none;marker-end:url(#a)}</style></defs><rect width="1200" height="675" fill="#0b0d10"/><text x="55" y="62" class="t" font-size="30">Residency is an optimization decision</text>
<rect x="55" y="115" width="470" height="475" rx="24" fill="#11151b" stroke="#22d3ee" stroke-width="3"/><text x="90" y="158" class="t" font-size="26">Host DRAM</text>
<rect x="90" y="195" width="400" height="76" rx="12" fill="#123442" stroke="#22d3ee"/><text x="110" y="225" class="t">point frame</text><text x="110" y="251" class="m">N×5 fp32 · producer slot</text>
<rect x="90" y="292" width="400" height="100" rx="12" fill="#321842" stroke="#a855f7"/><text x="110" y="325" class="t">pillar slot × 2</text><text x="110" y="352" class="m">25.18 MiB features + grid + coords</text><text x="110" y="377" class="m">one active, one being prepared</text>
<rect x="90" y="414" width="400" height="72" rx="12" fill="#233414" stroke="#84cc16"/><text x="110" y="445" class="t">decoded boxes</text><text x="110" y="471" class="m">≤830 canonical pp_box values</text>
<rect x="90" y="507" width="400" height="50" rx="12" fill="#3c2910" stroke="#f59e0b"/><text x="290" y="539" text-anchor="middle" class="m">≈10.5 KiB compact D2H / frame</text>
<rect x="675" y="115" width="470" height="475" rx="24" fill="#11151b" stroke="#84cc16" stroke-width="3"/><text x="710" y="158" class="t" font-size="26">Device DRAM</text>
<rect x="710" y="195" width="400" height="72" rx="12" fill="#321842" stroke="#a855f7"/><text x="730" y="226" class="t">weights</text><text x="730" y="251" class="m">23.19 MiB fp32 + 11.59 MiB fp16</text>
<rect x="710" y="288" width="400" height="122" rx="12" fill="#123442" stroke="#22d3ee"/><text x="730" y="320" class="t">persistent activations</text><text x="730" y="348" class="m">scatter 64 MiB · stage ping-pong 32 MiB</text><text x="730" y="376" class="m">ups 24 MiB · concat 24 MiB · raw 14.75 MiB</text><text x="730" y="401" class="m">hybrid inference total ≈270.5 MiB</text>
<rect x="710" y="431" width="400" height="88" rx="12" fill="#3c2910" stroke="#f59e0b"/><text x="730" y="463" class="t">compact candidate capacity</text><text x="730" y="491" class="m">10×65,536×52 B = 32.5 MiB bounded</text>
<path d="M525 532 C590 532 610 532 675 532" class="a"/><path d="M675 230 C610 230 590 230 525 230" class="a"/><text x="600" y="215" text-anchor="middle" class="m">H2D pillars</text><text x="600" y="565" text-anchor="middle" class="m">D2H candidates</text></svg>
