<svg xmlns="http://www.w3.org/2000/svg" viewBox="0 0 1200 675" role="img">
  <title>Terminal visualizer compositing layers</title>
  <desc>All in-view points accumulate density while range rings, age and height colors, sweep flow, tracks, velocity, 3D boxes, selection, and ego are composed into Braille cells with bounded state.</desc>
  <defs>
    <marker id="a" markerWidth="10" markerHeight="10" refX="8" refY="3" orient="auto"><path d="M0 0L9 3 0 6Z" fill="#f59e0b"/></marker>
    <style>.t{fill:#e8edf2;font:21px system-ui}.m{fill:#a7b2c1;font:16px ui-monospace,monospace}.a{stroke:#f59e0b;stroke-width:4;fill:none;marker-end:url(#a)}</style>
  </defs>
  <rect width="1200" height="675" fill="#0b0d10"/>
  <text x="55" y="62" class="t" font-size="30">A terminal cell is a tiny 2 × 4 framebuffer</text>
  <g transform="translate(70 130)">
    <rect width="390" height="420" rx="20" fill="#11151b" stroke="#637083" stroke-width="3"/>
    <g fill="none" stroke="#303947" stroke-width="2">
      <circle cx="195" cy="210" r="62"/><circle cx="195" cy="210" r="124"/><circle cx="195" cy="210" r="186"/>
      <path d="M8 210H382M195 23V397"/>
    </g>
    <path d="M25 320C80 250 125 280 180 200S290 145 360 80" stroke="#22d3ee" stroke-width="7" fill="none" stroke-linecap="round"/>
    <path d="M90 290L150 245L210 215" stroke="#a855f7" stroke-width="5" stroke-dasharray="9 7"/>
    <path d="M225 180L318 150L336 205L243 235Z" fill="none" stroke="#f59e0b" stroke-width="6"/>
    <path d="M280 192L318 180M280 192L350 135" stroke="#84cc16" stroke-width="5"/>
    <path d="M195 198L208 220L182 220Z" fill="none" stroke="#f59e0b" stroke-width="4"/>
  </g>
  <path d="M460 340H575" class="a"/>
  <g transform="translate(575 130)">
    <text x="210" y="-20" text-anchor="middle" class="t">priority raster</text>
    <rect width="420" height="420" rx="20" fill="#11151b" stroke="#22d3ee" stroke-width="3"/>
    <g class="m">
      <text x="30" y="50">1       range rings</text>
      <text x="30" y="88">2       metric axes</text>
      <text x="30" y="126" fill="#84cc16">3…8     age + height + flow</text>
      <text x="30" y="164" fill="#a855f7">10…19   trails</text>
      <text x="30" y="202" fill="#22d3ee">20…29   velocity</text>
      <text x="30" y="240" fill="#f59e0b">30…39   boxes + heading</text>
      <text x="30" y="278" fill="#e8edf2">60…61   focus + ego</text>
    </g>
    <rect x="320" y="55" width="42" height="82" fill="none" stroke="#637083" stroke-width="2"/>
    <g fill="#e8edf2"><circle cx="332" cy="68" r="5"/><circle cx="350" cy="86" r="5"/><circle cx="332" cy="104" r="5"/><circle cx="350" cy="122" r="5"/></g>
    <text x="341" y="164" text-anchor="middle" class="m">Braille</text>
    <text x="210" y="338" text-anchor="middle" class="t">one canonical pp_detections</text>
    <text x="210" y="370" text-anchor="middle" class="m">same boxes as JSON and evaluation</text>
  </g>
  <text x="70" y="615" class="m">3D / BEV · all-point density · async inference · continuous flow · signal-safe restore</text>
</svg>
